# xmcd CD database file
#
# Track frame offsets:
#	150
#	13680
#	27790
#	70410
#	91575
#	101634
#	110525
#	129579
#	153176
#	186162
#
# Disc length: 2630 seconds
#
# Revision: 0
# Processed by: cddbd v1.5.2PL0 Copyright (c) Steve Scherf et al.
# Submitted via: CDex 1.70beta2
#
DISCID=770a440a
DTITLE=SJ1 - Smooth Jazz - D1
DYEAR=1900
DGENRE=Jazz
TTITLE0=A Night In Tunisia - Miles Davis
TTITLE1=Come Rain or Shine - Chick Corea
TTITLE2=I'm Afraid the Masquerade Is Over - George Benson
TTITLE3=Night Walker - Herbie Hancock
TTITLE4=My Funny valentine - Ahmad Jamal
TTITLE5=Ain't No Sunshine - Al Jarreau
TTITLE6=Bangles, Baubles and Beads - Hebie Mann
TTITLE7=Peggy's Blue Skylight - Charles Mingus
TTITLE8=Body and Soul - Wes Montgomery
TTITLE9=Lady Be Good - Jean-Luc Ponty
EXTD=
EXTT0=
EXTT1=
EXTT2=
EXTT3=
EXTT4=
EXTT5=
EXTT6=
EXTT7=
EXTT8=
EXTT9=
PLAYORDER=
